<svg xmlns="http://www.w3.org/2000/svg" viewBox="0 0 68 68"><defs><style>.a{fill:#0c1626;stroke:#f7ec13;stroke-width:3px;}.b{fill:#fff;}</style></defs><title>accommodationicon</title><path class="a" d="M417.57-268.38a32.5,32.5,0,0,0-32.48,32.51,32.49,32.49,0,0,0,32.51,32.49,32.5,32.5,0,0,0,32.49-32.51h0A32.51,32.51,0,0,0,417.57-268.38Z" transform="translate(-383.59 269.88)"/><path class="b" d="M436.4-234v4.49a.41.41,0,0,1-.41.41H415.64a.41.41,0,0,1-.41-.41v-7.17a.41.41,0,0,1,.41-.41h17.67A3.08,3.08,0,0,1,436.4-234Z" transform="translate(-383.59 269.88)"/><path class="b" d="M411-253.37c.76-.59,1-.37.61.5a3.8,3.8,0,0,0-.14,1.38,5.2,5.2,0,0,0,5.2,5.21h.65c.65-.18.59.2-.13.85a4.85,4.85,0,0,1-3,1.07,5.21,5.21,0,0,1-5.21-5.21h0A5.43,5.43,0,0,1,411-253.37Z" transform="translate(-383.59 269.88)"/><path class="b" d="M414-235.59v5a1.55,1.55,0,0,1-1.54,1.56H405.2a1.54,1.54,0,0,1-1.54-1.56,1.54,1.54,0,0,1,1.54-1.54h5.66v-3.42a1.56,1.56,0,0,1,1.55-1.55A1.55,1.55,0,0,1,414-235.59Z" transform="translate(-383.59 269.88)"/><path class="b" d="M406.42-239.79a3.16,3.16,0,0,1,3.17,3.18,3.17,3.17,0,0,1-3.17,3.17,3.19,3.19,0,0,1-3.17-3.18h0A3.17,3.17,0,0,1,406.42-239.79Z" transform="translate(-383.59 269.88)"/><path class="b" d="M435.16-218.06a1.54,1.54,0,0,1-1.55-1.55h0V-224a.35.35,0,0,0-.35-.35H401.92a.36.36,0,0,0-.36.35v4.36a1.54,1.54,0,0,1-1.55,1.55,1.55,1.55,0,0,1-1.55-1.55v-20.18a1.56,1.56,0,0,1,1.55-1.55,1.55,1.55,0,0,1,1.55,1.55h0v12a.37.37,0,0,0,.36.36h34.44a.35.35,0,0,1,.35.35h0v7.46a1.54,1.54,0,0,1-1.55,1.55Z" transform="translate(-383.59 269.88)"/></svg>