<svg xmlns="http://www.w3.org/2000/svg" viewBox="0 0 68 68"><defs><style>.a{fill:#0c1626;stroke:#33b8eb;stroke-width:3px;}.b{fill:#fff;}</style></defs><title>baricon</title><path class="a" d="M504-267.62a32.5,32.5,0,0,0-32.49,32.51A32.49,32.49,0,0,0,504-202.62a32.51,32.51,0,0,0,32.49-32.51h0A32.51,32.51,0,0,0,504-267.62Z" transform="translate(-470.01 269.12)"/><path class="b" d="M512.7-242.42a.46.46,0,0,1,.45.46.43.43,0,0,1-.12.31l-1.68,1.8a2.27,2.27,0,0,1-1.66.72h-2.91l2.65-3.29Zm-9.8,3.29h-6.8a2.27,2.27,0,0,1-1.66-.72l-1.68-1.8a.44.44,0,0,1,0-.64.45.45,0,0,1,.31-.12h14.58L505-239.12Zm16.47-17.8-3.61,4.47a2.77,2.77,0,0,0-3.66,1.36,2.74,2.74,0,0,0,.3,2.81l-2.83,3.51H488.31a.76.76,0,0,0-.75.76.75.75,0,0,0,.21.51l14,15.28v12.89h-5.1a1,1,0,0,0-1,1,1,1,0,0,0,1,1h12.55a1,1,0,0,0,1-1,1,1,0,0,0-1-1h-5.08v-12.89L518-243.51a.76.76,0,0,0,0-1.07.77.77,0,0,0-.52-.2h-6.14l2.14-2.65a2.75,2.75,0,0,0,3.66-1.35,2.76,2.76,0,0,0-.3-2.81l3.61-4.49Z" transform="translate(-470.01 269.12)"/></svg>