<svg id="Layer_1" data-name="Layer 1" xmlns="http://www.w3.org/2000/svg" viewBox="0 0 487.26 175.54"><defs><style>.cls-1{fill:#e7b822;}.cls-2{fill:#151626;}.cls-3{fill:#232323;}.cls-4{fill:#ffc90c;}</style></defs><title>busleft</title><path class="cls-1" d="M287.46-423H510.18c5.9,0,8.65,1.63,10.91,6.57,4.08,9,5.38,18.42,6.61,27.94,2.52,19.35,2.85,38.76,2.28,58.17a240.92,240.92,0,0,1-3.81,38.28c-1.3,6.81-2.48,13.51-5.87,19.86-2.11,4-5.07,5.57-9.91,5.57q-170.76-.08-341.53,0c-34.5,0-69-.05-103.49.05-5.47,0-9.85-1.7-11.83-7A114.39,114.39,0,0,1,47.23-302c-1.71-16.69-2.88-33.4-2.25-50.14.56-14.49,1.16-29,3.82-43.39,1.27-6.83,2.54-13.59,5.27-20.09C56.46-421.34,59.24-423,66-423Z" transform="translate(-44.81 432.54)"/><path class="cls-2" d="M99-266.62h18.9c0,2.41-.12,4.82,0,7.23.06,1.64-.6,2.41-2.64,2.38-4.53-.05-9.07-.07-13.61,0-2.12,0-2.62-.81-2.57-2.39C99.16-261.8,99.05-264.21,99-266.62Z" transform="translate(-44.81 432.54)"/><path class="cls-2" d="M117.93-423A140.24,140.24,0,0,1,99-423c0-2.51.09-5,.07-7.53,0-1.39.64-2,2.37-2,4.55.06,9.11.07,13.65,0,2,0,2.82.64,2.78,2.3C117.84-427.83,117.92-425.41,117.93-423Z" transform="translate(-44.81 432.54)"/><path class="cls-3" d="M64.46-345.59c.17-15.19,2.09-30.15,8.9-44.39,3-6.37,7-12.28,13.82-16.49a24.35,24.35,0,0,1,8.11-3.17,3.23,3.23,0,0,1,3.27.8c1.07,1.13-.13,1.69-.69,2.39-5.14,6.58-7,14.1-8.44,21.64C85.32-363.72,85-342.51,87-321.24a124,124,0,0,0,5.55,28.08,31.3,31.3,0,0,0,4.3,8.76c.91,1.24.94,2-.23,3.12a3.41,3.41,0,0,1-4,.76c-7.29-2.56-11.89-7.39-15.53-13-6.51-10-9.38-20.88-11.16-32A110.94,110.94,0,0,1,64.46-345.59Z" transform="translate(-44.81 432.54)"/><path class="cls-1" d="M522.3-423h9.76a0,0,0,0,1,0,0v156.06a0,0,0,0,1,0,0H522.3a21.24,21.24,0,0,1-21.24-21.24V-401.76A21.24,21.24,0,0,1,522.3-423Z" transform="translate(988.31 -257.4) rotate(180)"/><path class="cls-4" d="M307.46-404.61H505.32c5.24,0,7.69,1.25,9.69,5,3.63,6.87,4.78,14.12,5.87,21.42,2.24,14.84,2.53,29.73,2,44.61a160.44,160.44,0,0,1-3.37,29.36c-1.16,5.22-2.21,10.36-5.22,15.23-1.88,3.05-4.51,4.27-8.81,4.27q-151.69-.06-303.41,0-46,0-91.94,0c-4.86,0-8.75-1.3-10.5-5.39A77.58,77.58,0,0,1,94-311.83c-1.52-12.81-2.56-25.62-2-38.45.49-11.12,1-22.25,3.4-33.28,1.12-5.24,2.25-10.42,4.67-15.4,2.13-4.36,4.6-5.65,10.59-5.65Z" transform="translate(-44.81 432.54)"/><path class="cls-3" d="M437.88-410.38c-6.91,0-13.82-.07-20.72.05-1.88,0-2.31-.53-2.16-2.1a25.76,25.76,0,0,0,0-4.12c-.06-1,.39-1.28,1.4-1.27q21.63,0,43.26,0c1.12,0,1.35.42,1.31,1.33a35.4,35.4,0,0,0,0,4.49c.11,1.33-.4,1.68-1.8,1.66C452.1-410.41,445-410.38,437.88-410.38Z" transform="translate(-44.81 432.54)"/><path class="cls-3" d="M493.58-417.67c7,0,14.08,0,21.12,0,1.36,0,2,.26,1.84,1.64a24.7,24.7,0,0,0,0,4.3c.15,1.5-.7,1.54-1.92,1.54q-16.71,0-33.4,0c-3,0-6,0-9.06,0-1.18,0-1.71-.22-1.62-1.43.14-1.92-.64-4.44.39-5.62s3.9-.37,5.95-.39C482.44-417.71,488-417.68,493.58-417.67Z" transform="translate(-44.81 432.54)"/><path class="cls-3" d="M321.65-410.38c-6.91,0-13.82-.07-20.72.05-1.88,0-2.31-.53-2.16-2.1a25.76,25.76,0,0,0,0-4.12c-.06-1,.39-1.28,1.4-1.27q21.63,0,43.26,0c1.12,0,1.35.42,1.31,1.33a35.4,35.4,0,0,0,0,4.49c.1,1.33-.4,1.68-1.8,1.66C335.87-410.41,328.76-410.38,321.65-410.38Z" transform="translate(-44.81 432.54)"/><path class="cls-3" d="M377.35-417.67c7,0,14.08,0,21.12,0,1.36,0,2,.26,1.84,1.64a24.7,24.7,0,0,0,0,4.3c.15,1.5-.71,1.54-1.93,1.54q-16.69,0-33.4,0c-3,0-6,0-9.05,0-1.18,0-1.71-.22-1.62-1.43.14-1.92-.65-4.44.39-5.62s3.9-.37,5.95-.39C366.21-417.71,371.78-417.68,377.35-417.67Z" transform="translate(-44.81 432.54)"/><path class="cls-3" d="M209.72-410.38c-6.91,0-13.81-.07-20.72.05-1.87,0-2.31-.53-2.16-2.1a25.76,25.76,0,0,0,0-4.12c-.06-1,.39-1.28,1.41-1.27q21.62,0,43.25,0c1.12,0,1.35.42,1.31,1.33a39.55,39.55,0,0,0,0,4.49c.11,1.33-.39,1.68-1.8,1.66C223.94-410.41,216.83-410.38,209.72-410.38Z" transform="translate(-44.81 432.54)"/><path class="cls-3" d="M265.42-417.67c7,0,14.08,0,21.13,0,1.35,0,2,.26,1.84,1.64a22.88,22.88,0,0,0,0,4.3c.14,1.5-.71,1.54-1.93,1.54q-16.71,0-33.4,0c-3,0-6,0-9.06,0-1.17,0-1.71-.22-1.62-1.43.14-1.92-.64-4.44.39-5.62s3.9-.37,5.95-.39C254.29-417.71,259.85-417.68,265.42-417.67Z" transform="translate(-44.81 432.54)"/><path class="cls-3" d="M149.19-417.67c7,0,14.08,0,21.13,0,1.35,0,2,.26,1.83,1.64a24.7,24.7,0,0,0,0,4.3c.15,1.5-.7,1.54-1.92,1.54q-16.71,0-33.4,0c-3,0-6,0-9.06,0-1.17,0-1.71-.22-1.62-1.43.14-1.92-.64-4.44.39-5.62s3.9-.37,6-.39C138.06-417.71,143.62-417.68,149.19-417.67Z" transform="translate(-44.81 432.54)"/><path class="cls-3" d="M435.64-271.5c-6.91,0-13.82-.08-20.72,0-1.88,0-2.31-.53-2.16-2.1a25.76,25.76,0,0,0,0-4.12c-.06-1,.39-1.27,1.4-1.27q21.63,0,43.25,0c1.13,0,1.36.42,1.32,1.33a35.4,35.4,0,0,0,0,4.49c.1,1.33-.4,1.68-1.8,1.66C449.85-271.54,442.75-271.51,435.64-271.5Z" transform="translate(-44.81 432.54)"/><path class="cls-3" d="M491.34-278.8c7,0,14.08,0,21.12,0,1.36,0,2,.26,1.84,1.64a23.75,23.75,0,0,0,0,4.3c.15,1.5-.71,1.54-1.93,1.54q-16.69,0-33.4,0c-3,0-6,0-9.05,0-1.18,0-1.71-.22-1.62-1.43.14-1.92-.65-4.44.39-5.62s3.89-.37,5.95-.39C480.2-278.84,485.77-278.8,491.34-278.8Z" transform="translate(-44.81 432.54)"/><path class="cls-3" d="M319.41-271.5c-6.91,0-13.82-.08-20.72,0-1.88,0-2.32-.53-2.16-2.1a25.76,25.76,0,0,0,0-4.12c-.06-1,.39-1.27,1.4-1.27q21.63,0,43.25,0c1.13,0,1.35.42,1.32,1.33a37.36,37.36,0,0,0,0,4.49c.11,1.33-.39,1.68-1.79,1.66C333.62-271.54,326.52-271.51,319.41-271.5Z" transform="translate(-44.81 432.54)"/><path class="cls-3" d="M375.11-278.8c7,0,14.08,0,21.12,0,1.36,0,2,.26,1.84,1.64a23.75,23.75,0,0,0,0,4.3c.15,1.5-.71,1.54-1.93,1.54q-16.69,0-33.4,0c-3,0-6,0-9.05,0-1.18,0-1.71-.22-1.62-1.43.14-1.92-.65-4.44.39-5.62s3.89-.37,6-.39C364-278.84,369.54-278.8,375.11-278.8Z" transform="translate(-44.81 432.54)"/><path class="cls-3" d="M207.48-271.5c-6.91,0-13.82-.08-20.72,0-1.88,0-2.31-.53-2.16-2.1a25.76,25.76,0,0,0,0-4.12c-.06-1,.39-1.27,1.4-1.27q21.63,0,43.26,0c1.12,0,1.35.42,1.31,1.33a37.36,37.36,0,0,0,0,4.49c.11,1.33-.4,1.68-1.8,1.66C221.7-271.54,214.59-271.51,207.48-271.5Z" transform="translate(-44.81 432.54)"/><path class="cls-3" d="M263.18-278.8c7,0,14.08,0,21.12,0,1.36,0,2,.26,1.84,1.64a24.7,24.7,0,0,0,0,4.3c.15,1.5-.7,1.54-1.92,1.54q-16.71,0-33.4,0c-3,0-6,0-9.06,0-1.18,0-1.71-.22-1.62-1.43.14-1.92-.64-4.44.39-5.62s3.9-.37,5.95-.39C252-278.84,257.61-278.8,263.18-278.8Z" transform="translate(-44.81 432.54)"/><path class="cls-3" d="M147-278.8c7,0,14.08,0,21.12,0,1.36,0,2,.26,1.84,1.64a24.7,24.7,0,0,0,0,4.3c.15,1.5-.71,1.54-1.93,1.54q-16.69,0-33.39,0c-3,0-6,0-9.06,0-1.18,0-1.71-.22-1.62-1.43.14-1.92-.65-4.44.39-5.62s3.9-.37,6-.39C135.81-278.84,141.38-278.8,147-278.8Z" transform="translate(-44.81 432.54)"/></svg>