<svg xmlns="http://www.w3.org/2000/svg" viewBox="0 0 77.83 46"><defs><style>.a{fill:#fed402;stroke:#fff;stroke-width:3px;}.b{fill:#0a1525;}.c{fill:#fff;}</style></defs><title>busarrow</title><path class="a" d="M404.56,275.71a21.5,21.5,0,1,0,21.5,21.5h0a21.51,21.51,0,0,0-21.5-21.5" transform="translate(-381.56 -274.21)"/><path class="b" d="M404.57,288.19h5.59c1.17,0,2.12.34,2.12,5.53v4.52a2,2,0,0,1-1.78,1.9,30.84,30.84,0,0,1-11.88,0,2,2,0,0,1-1.78-1.9v-4.53c0-5.18,1-5.53,2.12-5.53Zm5.75,18.15a1.94,1.94,0,1,1,1.93-1.94h0a1.93,1.93,0,0,1-1.93,1.94m-11.52,0a1.94,1.94,0,1,1,1.94-1.94h0a2,2,0,0,1-1.94,1.94h0M404.55,285h4.35a.37.37,0,0,1,.37.37v1.35a.38.38,0,0,1-.37.38h-8.68a.38.38,0,0,1-.37-.38v-1.35a.37.37,0,0,1,.37-.37Zm0,23.34H411s.07,2,1.43,2.05h1.2a1.43,1.43,0,0,0,1.29-1.55s0-12.84,0-13.5a.71.71,0,0,0,.32.07h.8a.78.78,0,0,0,.78-.78v-3.27a.78.78,0,0,0-.78-.78h-.8a.78.78,0,0,0-.48.17c-.05-1.58-.09-2.73-.09-2.73a4.3,4.3,0,0,0-4.05-4h-12a4.3,4.3,0,0,0-4.05,4s0,1.15-.09,2.73a.74.74,0,0,0-.48-.17h-.8a.78.78,0,0,0-.78.78v3.27a.78.78,0,0,0,.78.78h.8a.71.71,0,0,0,.32-.07c0,.66,0,13.5,0,13.5a1.43,1.43,0,0,0,1.29,1.55h1.2c1.36-.05,1.44-2.05,1.44-2.05Z" transform="translate(-381.56 -274.21)"/><path class="c" d="M426.06,299.58h23.7l-9.91,9.92,3.54,3.55,16-16-16-16-3.54,3.55,9.91,9.92h-23.7" transform="translate(-381.56 -274.21)"/></svg>