<svg xmlns="http://www.w3.org/2000/svg" viewBox="0 0 122.96201 120.90326"><defs><style>.a{fill:#fed402;}.b{fill:#fff;stroke:#fed402;stroke-width:6px;}.c{fill:#0a1525;}</style></defs><title>businfo</title><path class="a" d="M308.026,328.99048H358.9513v50.928A50.92806,50.92806,0,0,1,308.026,430.8438h0A50.92806,50.92806,0,0,1,257.098,379.91853h0A50.92806,50.92806,0,0,1,308.026,328.99048Z" transform="translate(-257.09798 -309.94054)"/><path class="b" d="M377.06,338.95831a26.029,26.029,0,1,1-26.04017-26.01777h.00009A26.03174,26.03174,0,0,1,377.06,338.95831" transform="translate(-257.09798 -309.94054)"/><path class="c" d="M343.8556,352.567a.52177.52177,0,0,0-.52173.52173h0v2.47735a.5217.5217,0,0,0,.52164.52173h14.35365a.52177.52177,0,0,0,.52173-.52173h0v-2.47735a.5217.5217,0,0,0-.52164-.52173h-3.92812V332.44965a.87881.87881,0,0,0-.8788-.87879h-8.76a.94013.94013,0,0,0-.93738.93737v.99033a.94013.94013,0,0,0,.93738.93737h3.13854v18.13379Z" transform="translate(-257.09798 -309.94054)"/><path class="c" d="M354.867,324.69968a3.836,3.836,0,1,0-3.836,3.836h0a3.836,3.836,0,0,0,3.836-3.836" transform="translate(-257.09798 -309.94054)"/><path class="c" d="M306.90448,364.84519h10.38646c2.16771,0,3.942.6416,3.942,10.26649v8.40844a3.76059,3.76059,0,0,1-3.31427,3.52081,57.14342,57.14342,0,0,1-22.03951,0,3.76357,3.76357,0,0,1-3.31708-3.52081v-8.40571c0-9.62762,1.7771-10.2665,3.942-10.2665Zm10.68223,33.70372a3.59322,3.59322,0,1,1,.00008,0h-.00008m-21.38948,0a3.59327,3.59327,0,1,1,3.59045-3.59607v.00272a3.59331,3.59331,0,0,1-3.59045,3.59335m10.67941-39.59309H314.942a.70022.70022,0,0,1,.70026.69746v2.5109a.703.703,0,0,1-.70026.70018H298.83362a.70028.70028,0,0,1-.69464-.70018v-2.5109a.69744.69744,0,0,1,.69464-.69746Zm.02512,43.35655H318.778s.13393,3.71884,2.65871,3.811h2.23181a2.6699,2.6699,0,0,0,2.402-2.87631s-.05857-23.85015-.07816-25.06644a1.44186,1.44186,0,0,0,.597.13111h1.48422a1.45907,1.45907,0,0,0,1.45629-1.45348V370.7875a1.4591,1.4591,0,0,0-1.45629-1.45075h-1.48413a1.43931,1.43931,0,0,0-.89557.31807c-.08369-2.93489-.16457-5.07748-.16457-5.07748a7.98732,7.98732,0,0,0-7.51576-7.47106H295.77315a7.98732,7.98732,0,0,0-7.51576,7.47106s-.08369,2.14259-.16457,5.07748a1.44513,1.44513,0,0,0-.89557-.31807H285.713a1.4563,1.4563,0,0,0-1.45348,1.45075v6.07071a1.45622,1.45622,0,0,0,1.45348,1.45348h1.48422a1.44186,1.44186,0,0,0,.597-.13111c-.0195,1.21629-.07535,25.06644-.07535,25.06644a2.66711,2.66711,0,0,0,2.3992,2.87631h2.23182c2.52478-.09212,2.66151-3.811,2.66151-3.811Z" transform="translate(-257.09798 -309.94054)"/></svg>