<svg xmlns="http://www.w3.org/2000/svg" viewBox="0 0 47.19043 51.09248"><defs><style>.a{fill:#001025;}</style></defs><title>busstopeta</title><path class="a" d="M29.77844,8.3698H40.60457c2.25867,0,4.10251.66787,4.10251,10.7122v8.7634a3.92013,3.92013,0,0,1-3.453,3.66946,59.56882,59.56882,0,0,1-22.98334,0,3.92248,3.92248,0,0,1-3.45522-3.66946V19.082c0-10.02847,1.853-10.7122,4.1025-10.7122ZM40.91451,43.50117a3.74472,3.74472,0,1,1,3.747-3.74694,3.74475,3.74475,0,0,1-3.747,3.74694m-22.295,0a3.74472,3.74472,0,1,1,3.74242-3.74694h0a3.74465,3.74465,0,0,1-3.74242,3.74694M29.75333,2.232h8.40791a.72936.72936,0,0,1,.72935.727V5.56867a.73162.73162,0,0,1-.72935.72936H21.37047a.7293.7293,0,0,1-.72477-.72936V2.959a.72705.72705,0,0,1,.72477-.727Zm.025,45.19169H42.15892s.139,3.87465,2.76921,3.97258h2.32251a2.78284,2.78284,0,0,0,2.50712-2.99936s-.05926-24.859-.07978-26.12633a1.50448,1.50448,0,0,0,.62.13675h1.54753a1.52019,1.52019,0,0,0,1.5179-1.51561v-6.327a1.52017,1.52017,0,0,0-1.5179-1.51339H50.29793a1.50234,1.50234,0,0,0-.93448.33053c-.08659-3.05862-.17319-5.29232-.17319-5.29232A8.32581,8.32581,0,0,0,41.35667.30376H18.1774a8.32581,8.32581,0,0,0-7.83359,7.78573s-.0866,2.23356-.17319,5.29232a1.50691,1.50691,0,0,0-.93448-.33053H7.68861a1.518,1.518,0,0,0-1.51568,1.51339v6.327A1.51789,1.51789,0,0,0,7.68861,22.4073H9.23614a1.50693,1.50693,0,0,0,.61995-.13675c-.02052,1.2673-.07748,26.12633-.07748,26.12633a2.77822,2.77822,0,0,0,2.50711,2.99936h2.32252c2.63246-.09571,2.77379-3.97258,2.77379-3.97258Z" transform="translate(-6.17293 -0.30376)"/></svg>