<svg xmlns="http://www.w3.org/2000/svg" viewBox="0 0 97.96 69.77"><defs><style>.a{fill:#0a1525;}.b,.c{fill:#fff;}.c{stroke:#fed402;stroke-miterlimit:10;stroke-width:3px;}</style></defs><title>busstop</title><path class="a" d="M659.82-259.22h29.77v29.77a29.77,29.77,0,0,1-29.77,29.77h0a29.77,29.77,0,0,1-29.77-29.77h0A29.77,29.77,0,0,1,659.82-259.22Z" transform="translate(-630.05 269.45)"/><rect class="b" x="14.73" y="34.66" width="2.13" height="19.45"/><rect class="b" x="42.81" y="34.66" width="2.13" height="19.45"/><path class="b" d="M669.56-243.42H650.21a6.5,6.5,0,0,0-6.5,6.5h32.35a6.5,6.5,0,0,0-6.5-6.5Z" transform="translate(-630.05 269.45)"/><path class="b" d="M650.11-219h1.78v3.66H654V-219h11.73v3.66h2.13V-219h1.78v-2.14H650.11Z" transform="translate(-630.05 269.45)"/><rect class="c" x="46.01" y="1.5" width="50.46" height="25.23" rx="7.42"/><path class="a" d="M688.09-260.6h1.28v10.46h-1.81v-8.61l-1.87.52-.39-1.48Z" transform="translate(-630.05 269.45)"/><path class="a" d="M698.66-260.6V-254h1.48v1.5h-1.48v2.33h-1.75v-2.33h-5.24l-.34-1.3,5.77-6.83Zm-1.75,2.52L693.49-254h3.42Z" transform="translate(-630.05 269.45)"/><path class="a" d="M702.11-258.94v-1.59H709v1.37l-2.9,3a5.5,5.5,0,0,1,1.15.27,3.23,3.23,0,0,1,1,.55,2.56,2.56,0,0,1,.68.87,2.91,2.91,0,0,1,.25,1.24,3.19,3.19,0,0,1-.27,1.33,3.09,3.09,0,0,1-.74,1,3.37,3.37,0,0,1-1.15.68,4.14,4.14,0,0,1-1.48.25,4.92,4.92,0,0,1-2.33-.51,5.19,5.19,0,0,1-1.64-1.32l1.27-1.18a4.31,4.31,0,0,0,1.21,1,3.08,3.08,0,0,0,1.52.35,1.92,1.92,0,0,0,1.29-.43,1.44,1.44,0,0,0,.51-1.16,1.34,1.34,0,0,0-.64-1.2,3.17,3.17,0,0,0-1.75-.41h-.85l-.29-1.15,2.8-3Z" transform="translate(-630.05 269.45)"/><path class="a" d="M713.39-258.64a5.56,5.56,0,0,0-1.15,1.17l-1.29-1a7.24,7.24,0,0,1,.75-.93,4.17,4.17,0,0,1,.84-.69,4,4,0,0,1,1-.43,4.73,4.73,0,0,1,1.24-.15,4.17,4.17,0,0,1,1.41.23,3,3,0,0,1,1.09.63,3.15,3.15,0,0,1,.69,1,3.27,3.27,0,0,1,.24,1.27,3.42,3.42,0,0,1-.16,1.11,3.47,3.47,0,0,1-.5.95,6.39,6.39,0,0,1-.84.94c-.35.31-.74.66-1.2,1l-2.14,1.78h4.95v1.6H710.8v-1.44l3.57-3c.36-.3.66-.57.91-.81a4.46,4.46,0,0,0,.6-.69,2.6,2.6,0,0,0,.33-.64,2,2,0,0,0,.11-.66,1.5,1.5,0,0,0-.49-1.2,1.73,1.73,0,0,0-1.19-.42A2.09,2.09,0,0,0,713.39-258.64Z" transform="translate(-630.05 269.45)"/></svg>