<svg xmlns="http://www.w3.org/2000/svg" viewBox="0 0 31.91 31.91"><defs><style>.a{fill:#97c93d;}.b{fill:#fff;}</style></defs><title>directions</title><path class="a" d="M348.67,240.83a16,16,0,1,0,16,16,16,16,0,0,0-16-16" transform="translate(-332.72 -240.83)"/><path class="b" d="M350.28,245.08a1.86,1.86,0,1,1-1.85,1.85,1.85,1.85,0,0,1,1.85-1.85" transform="translate(-332.72 -240.83)"/><path class="b" d="M355.34,256a.82.82,0,0,1-1.1.35l-2.2-1.12a2.59,2.59,0,0,1-1.18-1.25l-.37-.74-.82,3.62,5.09,8a1.3,1.3,0,0,1-2.19,1.39L348,259.05c-.13.6-.28,1.19-.38,1.77a5.44,5.44,0,0,1-.77,2l-2,3.42a1.29,1.29,0,0,1-2.22-1.32l1.91-3.21a6,6,0,0,0,.66-1.66l1.67-7.44-1.05.86a.81.81,0,0,0-.29.46l-.61,2.74a.82.82,0,0,1-1,.62.81.81,0,0,1-.62-1l.68-3a2.08,2.08,0,0,1,.73-1.17l3.18-2.57a1.86,1.86,0,0,1,2.94.64l1.76,3.47,2.41,1.23a.83.83,0,0,1,.36,1.11" transform="translate(-332.72 -240.83)"/></svg>