<?xml version="1.0" encoding="utf-8"?>
<!-- Generator: Adobe Illustrator 23.0.0, SVG Export Plug-In . SVG Version: 6.00 Build 0)  -->
<svg version="1.1" id="Capa_1" xmlns="http://www.w3.org/2000/svg" xmlns:xlink="http://www.w3.org/1999/xlink" x="0px" y="0px"
	 viewBox="0 0 512 512" style="enable-background:new 0 0 512 512;" xml:space="preserve">
<style type="text/css">
	.st0{fill:#FFFFFF;}
</style>
<path class="st0" d="M431.6,232c-2.5-7.1-9.4-11.7-17-11.1c-7.5,0.7-13.6,6.6-14.6,14.1c-4.4,19.9-12.2,38.9-23.2,56.1
	c-6.8,10.4-14.7,20.1-22.2,30.1l-1.5-0.9c0.1-0.9,0.3-1.8,0.6-2.7c9.7-23.6,15.4-48.6,17-74c2.3-28-0.4-56.1-8.1-83.1
	c-13.4-47.9-41.2-90.5-79.6-122.1c-18.3-15.2-38.7-27.6-60.6-36.8c-1.6-0.8-3.4-1.3-5.2-1.5c-8.6-0.9-16.3,5.4-17.2,14.1
	c0,4.4,1,8.7,3.1,12.5c16.3,32.4,20.4,69.7,11.6,104.9c-3.1,13-8,25.4-14.7,36.9c-0.6-2.3-1.1-3.7-1.4-5.1
	c-4.1-21-11.9-41.1-22.9-59.4c-2.3-4.4-6.5-7.6-11.5-8.4c-0.2,0-0.3-0.1-0.5-0.1c-9-1.4-17.4,4.8-18.8,13.8
	c-3.7,12.8-7.2,25.8-12,38.2c-8.6,19.7-19.8,38.3-33.3,55.1c-40,52-49.8,121.2-25.8,182.3c35,95.4,137.8,147.6,235.5,119.6
	c77.8-21.8,134-89.3,141.3-169.7C453.9,299.4,447.3,263.9,431.6,232z M417.5,330c-3.1,75.7-58.4,139.1-133,152.5
	c-87.9,15.7-171.8-42.7-187.6-130.6c-9.4-46.8,2-95.4,31.1-133.2c13.8-17.4,25.3-36.6,34.1-57c0.3-0.9,0.9-1.6,2.2-3.8
	c1.5,5.9,2.7,11.9,3.5,18c0.8,10.4,0.9,20.9,1.3,31.4c0.1,2.2-0.1,4.4-0.1,6.6c-0.1,4.4,1.7,8.7,4.8,11.8c6.4,6.3,16.6,6.2,22.9-0.2
	c44.5-43.8,63.6-107.4,50.7-168.5c-0.4-1.8-0.3-3.6,0.3-5.3c7.2,5.8,14.7,11.3,21.5,17.5c85.7,77.4,93,209.4,16.5,295.8
	c-1.2,1.4-2.5,2.8-3.7,4.2c-4.2,4.7-5.3,11.4-2.7,17.2c3.6,8.1,13.1,11.8,21.2,8.2c38-14.8,70.9-40.4,94.5-73.7
	c6.4-8.9,11.5-18.7,17.3-28.1c0.7-1.1,1.4-2.2,2.5-3.9C417.5,302.4,418.4,316.3,417.5,330z"/>
</svg>
