<svg xmlns="http://www.w3.org/2000/svg" viewBox="0 0 42.57 71.26"><title>user</title><path d="M793.65-270.41a6.05,6.05,0,0,1,6.05,6.06,6.07,6.07,0,0,1-6.06,6.05,6.05,6.05,0,0,1-6-6.06,6.05,6.05,0,0,1,6.06-6.05h0" transform="translate(-767.89 270.41)"/><path d="M810.18-234.78a2.68,2.68,0,0,1-3.6,1.17l-7.19-3.66a8.37,8.37,0,0,1-3.84-4.1l-1.21-2.41L791.65-232l16.62,26.26a4.23,4.23,0,0,1-1.31,5.83,4.22,4.22,0,0,1-5.83-1.31L786.2-224.76c-.44,2-.91,3.87-1.25,5.79a17.81,17.81,0,0,1-2.52,6.51l-6.65,11.2a4.23,4.23,0,0,1-5.78,1.53,4.22,4.22,0,0,1-1.53-5.78l0-.07,6.24-10.49a18.83,18.83,0,0,0,2.15-5.42l5.47-24.31L778.94-243a2.65,2.65,0,0,0-.94,1.52l-2,8.94a2.68,2.68,0,0,1-3.16,2.07,2.67,2.67,0,0,1-2.07-3.17v0l2.23-9.91a6.86,6.86,0,0,1,2.38-3.83l10.4-8.39a6.07,6.07,0,0,1,8.58.47,6.43,6.43,0,0,1,1,1.6l5.74,11.36,7.89,4a2.67,2.67,0,0,1,1.16,3.6" transform="translate(-767.89 270.41)"/></svg>