<svg xmlns="http://www.w3.org/2000/svg" viewBox="0 0 239.9 239.9"><defs><style>.a{fill:#fff;}.b{fill:#ee2e27;}.c{fill:#87aa3e;}.d{fill:#428fbf;}.e{fill:#001231;}</style></defs><title>logo</title><path class="a" d="M540.27,297.22a120,120,0,1,1-120-120,120,120,0,0,1,120,120" transform="translate(-300.36 -177.27)"/><path class="b" d="M450.06,212.17A90.3,90.3,0,0,1,488,237.75h24.89a110.43,110.43,0,0,0-55.24-44.05Z" transform="translate(-300.36 -177.27)"/><path class="c" d="M374.26,397.15l7.57-18.47a90.1,90.1,0,0,0,68.24,3.59l7.57,18.47a110.14,110.14,0,0,1-83.38-3.59" transform="translate(-300.36 -177.27)"/><path class="d" d="M374.26,397.15l7.57-18.47a90.43,90.43,0,0,1-29.18-22H327.76a110.58,110.58,0,0,0,46.5,40.46" transform="translate(-300.36 -177.27)"/><path class="e" d="M371,304.46l8.65-21.21,8.62,21.21Zm2-57.17c-1.57.09-7.52.82-10.53,6L334,323.14a90.11,90.11,0,0,1,116.05-111l7.57-18.47A110,110,0,0,0,322.29,347.18l31.35,0L361.05,329h37.24l3.82,9.36a13.85,13.85,0,0,0,12.87,8.8h20.61l-40.94-99.86Z" transform="translate(-300.36 -177.27)"/><path class="e" d="M518.34,247.26H443.62c-1.7.13-8.63,1-11.28,7.51l-7,17.06H447.7l-16.39,39.62L446,347.15l31.14-75.32h29.68a90.11,90.11,0,0,1-56.7,110.44l7.57,18.47a110,110,0,0,0,60.7-153.48" transform="translate(-300.36 -177.27)"/></svg>