<svg xmlns="http://www.w3.org/2000/svg" viewBox="0 0 77.83 46"><defs><style>.a{fill:#a1a0a0;stroke:#fff;stroke-miterlimit:10;stroke-width:3px;}.b{fill:#fff;}.c{fill:#0a1525;}</style></defs><title>maparrow</title><path class="a" d="M437.61,235.24a21.5,21.5,0,1,0-21.5-21.5h0a21.5,21.5,0,0,0,21.5,21.5" transform="translate(-382.78 -190.74)"/><path class="b" d="M416.11,211.38h-23.7l9.91-9.92-3.54-3.55-16,16,16,16,3.54-3.56-9.91-9.92h23.7" transform="translate(-382.78 -190.74)"/><path class="c" d="M444,201.31c.43.12.88.14,1.31.28a6.21,6.21,0,0,1,4.58,4.69,5.32,5.32,0,0,1-.5,3.63,18.15,18.15,0,0,1-2.3,3.38.33.33,0,0,0-.05.43q2.16,4.62,4.32,9.27a2.56,2.56,0,0,0,.11.24c-.12.06-.21,0-.29,0l-6.7-2.46a.71.71,0,0,0-.59,0l-5.76,2.45a.65.65,0,0,1-.56,0l-6.17-2.46a.75.75,0,0,0-.62,0L424,223.2a.48.48,0,0,1-.26.06c0-.11.05-.19.09-.27l4.66-10a.43.43,0,0,0,0-.45,4.17,4.17,0,0,1-.71-1.68,3.35,3.35,0,0,1,1.76-3.45,3.61,3.61,0,0,1,4.94,1.37,3.25,3.25,0,0,1,.32.74,3.34,3.34,0,0,1-.43,2.7c-.14.22-.11.29.14.36,1,.29,2,.59,3,.9a.76.76,0,0,0,.47,0l1.56-.49-.71-.95a9.91,9.91,0,0,1-1.72-3.24,5.51,5.51,0,0,1,1.77-5.7,6.52,6.52,0,0,1,3.82-1.72c.06,0,.14,0,.17-.05H443a1.79,1.79,0,0,0,.92,0ZM426.3,221.17l.34-.14,4.37-1.92a.49.49,0,0,1,.44,0l6.15,2.41a.6.6,0,0,0,.49,0l5.76-2.4a.49.49,0,0,1,.44,0l4.44,2a.4.4,0,0,0,.29.08l-2.83-6.77c-1,1.18-1.89,2.36-2.74,3.6l-.1-.12c-.87-1.23-1.83-2.41-2.77-3.59a.32.32,0,0,0-.41-.13c-.71.23-1.43.44-2.14.68a1,1,0,0,1-.63,0l-3.81-1.18a.26.26,0,0,0-.34.09c-.61.8-1.24,1.58-1.79,2.42-.1.16-.16.19-.28,0-.44-.66-.94-1.28-1.43-1.92-.25-.33-.58-.27-.74.12-.79,2-1.59,3.93-2.38,5.9C426.52,220.59,426.43,220.84,426.3,221.17Zm20.33-13.75a2.68,2.68,0,0,0-.16-.93,3.31,3.31,0,0,0-4.33-1.78,3.72,3.72,0,0,0-.87.54,2.83,2.83,0,0,0-.37,4,2.44,2.44,0,0,0,.27.29,3.36,3.36,0,0,0,4,.39A2.87,2.87,0,0,0,446.63,207.42Zm-15.3,1.29a1.68,1.68,0,1,0,1.73,1.69,1.72,1.72,0,0,0-1.73-1.69Z" transform="translate(-382.78 -190.74)"/></svg>