<svg xmlns="http://www.w3.org/2000/svg" width="33" height="33" viewBox="0 0 33 33">
  <g id="Group_104" data-name="Group 104" transform="translate(-641 -254.392)">
    <path id="Path_167" data-name="Path 167" d="M658.016,287.392h-1.031c-1-.6-.731-1.626-.785-2.483-7.285-1.258-11.5-5.5-12.721-12.735-.922.013-1.883.191-2.479-.767v-1.031c.6-1,1.625-.731,2.48-.784,1.265-7.28,5.5-11.5,12.747-12.722-.038-.926-.191-1.878.757-2.478h1.031c1,.6.731,1.626.784,2.48,7.28,1.265,11.5,5.5,12.72,12.737.922-.013,1.883-.191,2.479.767v1.031c-.6,1-1.625.731-2.558.789a14.048,14.048,0,0,1-12.66,12.65C658.8,285.835,658.973,286.8,658.016,287.392ZM646.29,272.2c-.442,4.149,6.005,10.571,9.879,9.877a7.845,7.845,0,0,1,.134-1.457,1.079,1.079,0,0,1,1.156-.835c1.63.075,1.26,1.357,1.348,2.334a11.143,11.143,0,0,0,9.928-9.942c-.364,0-.724.012-1.084,0a1.229,1.229,0,0,1-1.257-1.262,1.217,1.217,0,0,1,1.269-1.31c.357-.014.715,0,1.076,0-.346-5.2-5.159-9.712-9.951-9.931,0,.342.009.681,0,1.021a1.232,1.232,0,0,1-1.279,1.3,1.219,1.219,0,0,1-1.295-1.285c-.012-.354,0-.708,0-1.067-5.384.4-9.778,5.382-9.914,9.9a8.569,8.569,0,0,1,1.515.168,1.069,1.069,0,0,1,.792,1.184C648.494,272.486,647.239,272.106,646.29,272.2Z" fill="#fff"/>
    <path id="Path_168" data-name="Path 168" d="M739.685,348.015a5.092,5.092,0,1,1-5.061-5.122A5.032,5.032,0,0,1,739.685,348.015Z" transform="translate(-77.093 -77.093)" fill="#fff"/>
  </g>
</svg>
