<svg xmlns="http://www.w3.org/2000/svg" viewBox="0 0 68 68"><defs><style>.a{fill:#fff;}.b{fill:none;stroke:#97c93f;stroke-width:3px;}</style></defs><title>menusights</title><path class="a" d="M592.67-238.69A6.72,6.72,0,0,0,586-232a6.72,6.72,0,0,0,6.72,6.73,6.72,6.72,0,0,0,6.72-6.73,6.72,6.72,0,0,0-6.72-6.72" transform="translate(-552.14 267.43)"/><path class="a" d="M592.67-222.68a9.3,9.3,0,0,1-9.29-9.29,9.3,9.3,0,0,1,9.29-9.29A9.3,9.3,0,0,1,602-232a9.3,9.3,0,0,1-9.29,9.29m-19.35-16.41a1.71,1.71,0,0,1-1.71-1.71,1.72,1.72,0,0,1,1.71-1.71A1.71,1.71,0,0,1,575-240.8a1.7,1.7,0,0,1-1.71,1.71M603-244h-26.7v-.79a1.91,1.91,0,0,0-1.91-1.91h-2.25a1.92,1.92,0,0,0-1.92,1.91v.79h-1a1.92,1.92,0,0,0-1.92,1.92v20a1.92,1.92,0,0,0,1.92,1.91H603A1.92,1.92,0,0,0,605-222v-20A1.92,1.92,0,0,0,603-244" transform="translate(-552.14 267.43)"/><path class="b" d="M586.13-265.93a32.51,32.51,0,0,0-32.49,32.51,32.51,32.51,0,0,0,32.51,32.49,32.5,32.5,0,0,0,32.49-32.51h0A32.49,32.49,0,0,0,586.13-265.93Z" transform="translate(-552.14 267.43)"/></svg>