<svg xmlns="http://www.w3.org/2000/svg" viewBox="0 0 102.278 686.16307"><defs><style>.a,.b,.e{fill:none;stroke-width:6px;}.a,.e{stroke:#e51e26;}.b{stroke:#fed402;stroke-miterlimit:10;}.c{fill:#0a1525;}.d{fill:#fff;}.e{stroke-miterlimit:3.864;}.f{fill:#e51e26;}.g{fill:#7e9b3d;}.h{fill:#297eb3;}</style></defs><title>menurail</title><path class="a" d="M-202.7796,420.67426v21" transform="translate(242.93963 97.32574)"/><path class="a" d="M-202.7796-7.60271v420.23" transform="translate(242.93963 97.32574)"/><path class="b" d="M-181.06759-5.15471v383.173" transform="translate(242.93963 97.32574)"/><path class="c" d="M-177.46161,403.34132a25.328,25.328,0,0,0-25.334-25.322,25.328,25.328,0,0,0-25.322,25.334,25.328,25.328,0,0,0,25.322,25.322,25.327,25.327,0,0,0,25.334-25.32v-.014" transform="translate(242.93963 97.32574)"/><path class="d" d="M-198.67262,403.34028a4.10592,4.10592,0,0,0-4.106-4.106,4.106,4.106,0,0,0-4.106,4.106,4.106,4.106,0,0,0,4.106,4.106,4.1,4.1,0,0,0,4.106-4.094v-.012" transform="translate(242.93963 97.32574)"/><path class="d" d="M-193.4926,403.34028a9.19993,9.19993,0,0,0-1.389-4.878h8.912a17.5,17.5,0,0,1-11.93408,21.68127,17.5,17.5,0,0,1-19.70392-7.51727h14.829a9.281,9.281,0,0,0,9.286-9.276v-.009" transform="translate(242.93963 97.32574)"/><path class="d" d="M-220.2736,403.34031a17.5,17.5,0,0,1,17.49377-17.50623,17.5,17.5,0,0,1,14.8432,8.22022h-14.84a9.291,9.291,0,0,0-9.28851,9.29346,9.29135,9.29135,0,0,0,1.38849,4.88354h-8.9a17.24443,17.24443,0,0,1-.7-4.891" transform="translate(242.93963 97.32574)"/><line class="e" x1="18.44904" y1="246.54901" x2="40.16004" y2="246.54901"/><line class="e" x1="18.44904" y1="422.58405" x2="40.16004" y2="422.58405"/><line class="e" x1="18.44904" y1="334.56702" x2="40.16004" y2="334.56702"/><line class="e" x1="19.85004" y1="161.09399" x2="41.56104" y2="161.09399"/><circle class="c" cx="51.139" cy="51.139" r="51.139"/><path class="d" d="M-147.23663-46.54973a44.929,44.929,0,0,1-44.929,44.929,44.929,44.929,0,0,1-44.929-44.929,44.929,44.929,0,0,1,44.928-44.929,44.929,44.929,0,0,1,44.93,44.928v.001" transform="translate(242.93963 97.32574)"/><path class="f" d="M-181.02361-78.40775a33.81694,33.81694,0,0,1,14.2,9.581h9.323a41.348,41.348,0,0,0-20.685-16.499Z" transform="translate(242.93963 97.32574)"/><path class="g" d="M-209.41764-9.12172l2.838-6.917a33.733,33.733,0,0,0,25.56,1.343l2.835,6.92a41.27,41.27,0,0,1-31.233-1.346" transform="translate(242.93963 97.32574)"/><path class="h" d="M-209.41663-9.12474l2.838-6.917a33.88023,33.88023,0,0,1-10.93-8.239h-9.323a41.40007,41.40007,0,0,0,17.415,15.155" transform="translate(242.93963 97.32574)"/><path class="c" d="M-210.62164-43.83974l3.238-7.944,3.23,7.944Zm.733-21.415a4.968,4.968,0,0,0-3.944,2.245l-10.659,26.167a33.75,33.75,0,0,1,22.61557-42.03166,33.75,33.75,0,0,1,20.85242.46666l2.834-6.92A41.211,41.211,0,0,0-230.935-60.5362a41.211,41.211,0,0,0,2.05334,32.69445l11.741-.008,2.775-6.8h13.95l1.432,3.5a5.184,5.184,0,0,0,4.821,3.3h7.716l-15.332-37.407Z" transform="translate(242.93963 97.32574)"/><path class="c" d="M-155.45162-65.26476h-27.991a4.868,4.868,0,0,0-4.224,2.811l-2.61,6.393h8.362l-6.134,14.834,5.486,13.373,11.661-28.212h11.119a33.758,33.758,0,0,1-21.236,41.363l2.835,6.92a41.212,41.212,0,0,0,24.78528-52.74985,41.21218,41.21218,0,0,0-2.05228-4.73715" transform="translate(242.93963 97.32574)"/><path class="a" d="M-202.7796,449.67426v13" transform="translate(242.93963 97.32574)"/><path class="a" d="M-202.7796,470.67426v13" transform="translate(242.93963 97.32574)"/><path class="a" d="M-202.7796,491.67426v13" transform="translate(242.93963 97.32574)"/><path class="a" d="M-202.7796,512.67426v13" transform="translate(242.93963 97.32574)"/><path class="a" d="M-202.7796,533.67426v29.5" transform="translate(242.93963 97.32574)"/><path class="d" d="M-198.67261,571.34027a4.10591,4.10591,0,0,0-4.106-4.106,4.106,4.106,0,0,0-4.106,4.106,4.106,4.106,0,0,0,4.106,4.106,4.1,4.1,0,0,0,4.106-4.094v-.012" transform="translate(242.93963 97.32574)"/><path class="d" d="M-193.49258,571.34026a9.19994,9.19994,0,0,0-1.389-4.878h8.912a17.5,17.5,0,0,1-11.93408,21.68127,17.5,17.5,0,0,1-19.70392-7.51727h14.829a9.281,9.281,0,0,0,9.286-9.276v-.009" transform="translate(242.93963 97.32574)"/><path class="d" d="M-220.27362,571.34029a17.5,17.5,0,0,1,17.49378-17.50623,17.5,17.5,0,0,1,14.8432,8.22022h-14.84a9.291,9.291,0,0,0-9.28851,9.29346,9.29124,9.29124,0,0,0,1.38849,4.88354h-8.9a17.24407,17.24407,0,0,1-.7-4.891" transform="translate(242.93963 97.32574)"/></svg>