<svg xmlns="http://www.w3.org/2000/svg" xmlns:xlink="http://www.w3.org/1999/xlink" viewBox="0 0 444.5 884.09"><defs><style>.a,.e,.f,.g,.h{fill:none;}.b{opacity:0.1;}.c{clip-path:url(#a);}.d{clip-path:url(#b);}.e,.f,.g,.h{stroke:#fff;stroke-miterlimit:10;}.e{stroke-width:8.52px;}.f{stroke-width:2.13px;}.g{stroke-width:7.45px;}.h{stroke-width:5.32px;}</style><clipPath id="a" transform="translate(349.36 457.41)"><rect class="a" x="-505.23" y="-145.65" width="393" height="612.58"/></clipPath><clipPath id="b" transform="translate(349.36 457.41)"><rect class="a" x="-351.49" y="-144.95" width="238.57" height="579.41"/></clipPath></defs><title>overlay</title><g class="b"><g class="c"><g class="d"><path class="e" d="M86.14-246a211.82,211.82,0,0,0-62.4-144.63,211.92,211.92,0,0,0-150.86-62.49A212,212,0,0,0-278-390.66c-4.93,4.93-9.59,10.07-14,15.37" transform="translate(349.36 457.41)"/><path class="e" d="M-304.61-231.59q-.19-4.09-.19-8.2a176.48,176.48,0,0,1,52-125.63,176.48,176.48,0,0,1,125.64-52A176.34,176.34,0,0,1-16.27-378.67" transform="translate(349.36 457.41)"/><path class="e" d="M48-326.87A195.93,195.93,0,0,0,11.13-378a194.25,194.25,0,0,0-138.26-57.27A194.24,194.24,0,0,0-265.38-378a195.15,195.15,0,0,0-43.82,66.71" transform="translate(349.36 457.41)"/><path class="e" d="M-272.68-306a159.83,159.83,0,0,1,32.54-46.78,158.75,158.75,0,0,1,113-46.81,162.58,162.58,0,0,1,28.44,2.5" transform="translate(349.36 457.41)"/><path class="e" d="M-265.11-273.52a141.16,141.16,0,0,1,37.58-66.67,141.8,141.8,0,0,1,43.75-29.88" transform="translate(349.36 457.41)"/><path class="e" d="M-246.74-206.36a124.61,124.61,0,0,1-4.53-33.43A123.21,123.21,0,0,1-226-314.9" transform="translate(349.36 457.41)"/><path class="e" d="M-202.29-164.63a105.49,105.49,0,0,1-31-68.93" transform="translate(349.36 457.41)"/><line class="f" x1="243.28" y1="447.84" x2="199.6" y2="491.52"/><line class="f" x1="255.9" y1="460.46" x2="173.23" y2="543.13"/><line class="f" x1="268.51" y1="473.08" x2="151.63" y2="589.96"/><path class="f" d="M23.74-88.93A211.83,211.83,0,0,0,86.15-233.56" transform="translate(349.36 457.41)"/><path class="f" d="M-6.81-370.54c1.8,1.67,3.58,3.37,5.32,5.11a176.52,176.52,0,0,1,52,125.64,176.49,176.49,0,0,1-52,125.63" transform="translate(349.36 457.41)"/><path class="f" d="M11.13-101.54A194.23,194.23,0,0,0,68.39-239.79a195.18,195.18,0,0,0-15.15-75.74" transform="translate(349.36 457.41)"/><path class="f" d="M-86.5-394.44a158.82,158.82,0,0,1,72.39,41.63,158.8,158.8,0,0,1,46.82,113,158.8,158.8,0,0,1-46.82,113" transform="translate(349.36 457.41)"/><path class="f" d="M-172.13-374.53a142.21,142.21,0,0,1,45-7.25,141.07,141.07,0,0,1,100.4,41.59,141,141,0,0,1,41.58,100.4,141.06,141.06,0,0,1-41.58,100.4" transform="translate(349.36 457.41)"/><path class="f" d="M-217.95-324.42c1-1.07,2-2.12,3-3.16a123.37,123.37,0,0,1,87.79-36.36,123.36,123.36,0,0,1,87.78,36.36A123.34,123.34,0,0,1-3-239.79,123.34,123.34,0,0,1-39.34-152" transform="translate(349.36 457.41)"/><path class="f" d="M-233.25-246a105.55,105.55,0,0,1,31-68.94,105.6,105.6,0,0,1,75.17-31.14A105.6,105.6,0,0,1-52-315a105.6,105.6,0,0,1,31.14,75.17,105.56,105.56,0,0,1-26.84,70.62" transform="translate(349.36 457.41)"/><polyline class="f" points="335.26 330.63 230.66 435.23 230.66 435.23 225.75 440.14"/><path class="g" d="M-278,61.39a211.85,211.85,0,0,0-62.4,144.69" transform="translate(349.36 457.41)"/><path class="g" d="M-247.38,343c-1.82-1.67-3.6-3.38-5.36-5.14a176.55,176.55,0,0,1-52-125.63,176.52,176.52,0,0,1,52-125.63" transform="translate(349.36 457.41)"/><path class="g" d="M-265.35,74a194.22,194.22,0,0,0-57.27,138.25,195,195,0,0,0,15.18,75.79" transform="translate(349.36 457.41)"/><path class="g" d="M-167.71,366.92a159,159,0,0,1-72.41-41.64,158.79,158.79,0,0,1-46.81-113,158.79,158.79,0,0,1,46.81-113" transform="translate(349.36 457.41)"/><path class="g" d="M-82.12,347a142.35,142.35,0,0,1-45,7.24,141,141,0,0,1-100.4-41.59,141.07,141.07,0,0,1-41.59-100.4,141.12,141.12,0,0,1,41.58-100.41" transform="translate(349.36 457.41)"/><path class="g" d="M-36.3,296.92c-1,1.06-2,2.1-3,3.12a123.31,123.31,0,0,1-87.78,36.37A123.35,123.35,0,0,1-214.89,300a123.34,123.34,0,0,1-36.36-87.78,123.38,123.38,0,0,1,36.36-87.79" transform="translate(349.36 457.41)"/><path class="g" d="M-21,218.56a105.49,105.49,0,0,1-31,68.86,105.58,105.58,0,0,1-75.16,31.14,105.6,105.6,0,0,1-75.17-31.14,105.57,105.57,0,0,1-31.13-75.16,105.51,105.51,0,0,1,27-70.78" transform="translate(349.36 457.41)"/></g><line class="g" x1="71.39" y1="518.8" x2="192.81" y2="397.38"/><line class="g" x1="218.05" y1="422.61" x2="96.62" y2="544.03"/><line class="g" x1="84.01" y1="531.41" x2="205.43" y2="409.99"/><line class="g" x1="216.92" y1="448.96" x2="109.24" y2="556.65"/><line class="g" x1="190.78" y1="500.35" x2="121.86" y2="569.26"/><line class="g" x1="164.4" y1="551.95" x2="134.47" y2="581.88"/><g class="d"><line class="g" x1="218.05" y1="422.61" x2="242.73" y2="397.93"/><line class="g" x1="205.43" y1="409.99" x2="270.27" y2="345.16"/><line class="g" x1="192.81" y1="397.38" x2="292.98" y2="297.2"/><path class="f" d="M-47.48,410.33A211.32,211.32,0,0,0-.25,383.87" transform="translate(349.36 457.41)"/><path class="f" d="M-340.37,218.6A211.87,211.87,0,0,0-278,363.13,212,212,0,0,0-127.1,425.62a213.21,213.21,0,0,0,79.62-15.29" transform="translate(349.36 457.41)"/><path class="f" d="M48.06,242.27A176.3,176.3,0,0,1-1.46,337.89a176.52,176.52,0,0,1-125.64,52,176.28,176.28,0,0,1-110.82-38.77" transform="translate(349.36 457.41)"/><path class="f" d="M-302.24,299.39a195.78,195.78,0,0,0,36.89,51.12A194.2,194.2,0,0,0-127.1,407.77,194.26,194.26,0,0,0,11.15,350.51a195.81,195.81,0,0,0,38.25-53.9" transform="translate(349.36 457.41)"/><path class="f" d="M-2.34,312.19a160.62,160.62,0,0,1-11.74,13.08,158.8,158.8,0,0,1-113,46.82,162.47,162.47,0,0,1-28.43-2.5" transform="translate(349.36 457.41)"/><path class="f" d="M14.89,212.26A141.07,141.07,0,0,1-26.7,312.66a142,142,0,0,1-43.77,29.89" transform="translate(349.36 457.41)"/><path class="f" d="M-7.49,178.83A124.61,124.61,0,0,1-3,212.26,123.23,123.23,0,0,1-28.25,287.4" transform="translate(349.36 457.41)"/><path class="f" d="M-51.93,137.16A105.53,105.53,0,0,1-21,206.1" transform="translate(349.36 457.41)"/><path class="h" d="M-202.27,143.07a6.24,6.24,0,0,1-6.24-6.24,6.24,6.24,0,0,1,6.24-6.24,6.22,6.22,0,0,1,6.24,6.24A6.24,6.24,0,0,1-202.27,143.07Z" transform="translate(349.36 457.41)"/><path class="h" d="M-180.61,96.31a6.23,6.23,0,0,1-6.24-6.24,6.24,6.24,0,0,1,6.24-6.24,6.23,6.23,0,0,1,6.24,6.24A6.25,6.25,0,0,1-180.61,96.31Z" transform="translate(349.36 457.41)"/><path class="h" d="M-154.17,44.77a6.24,6.24,0,0,1-6.25-6.24,6.24,6.24,0,0,1,6.25-6.24,6.21,6.21,0,0,1,6.23,6.24A6.23,6.23,0,0,1-154.17,44.77Z" transform="translate(349.36 457.41)"/><path class="h" d="M-127.93-6.53a6.24,6.24,0,0,1-6.25-6.24A6.24,6.24,0,0,1-127.94-19a6.22,6.22,0,0,1,6.24,6.24A6.23,6.23,0,0,1-127.93-6.53Z" transform="translate(349.36 457.41)"/><path class="h" d="M-102.15-57.58a6.24,6.24,0,0,1-6.25-6.23A6.24,6.24,0,0,1-102.15-70a6.22,6.22,0,0,1,6.24,6.24A6.24,6.24,0,0,1-102.15-57.58Z" transform="translate(349.36 457.41)"/><path class="h" d="M-74.6-110.34a6.24,6.24,0,0,1-6.25-6.24,6.24,6.24,0,0,1,6.24-6.24,6.22,6.22,0,0,1,6.24,6.24A6.23,6.23,0,0,1-74.6-110.34Z" transform="translate(349.36 457.41)"/><path class="h" d="M-51.95-158.38a6.25,6.25,0,0,1-6.25-6.25A6.25,6.25,0,0,1-52-170.87a6.22,6.22,0,0,1,6.24,6.24A6.24,6.24,0,0,1-51.95-158.38Z" transform="translate(349.36 457.41)"/><path class="h" d="M-340.46,218.56a6.24,6.24,0,0,1-6.24-6.24,6.24,6.24,0,0,1,6.24-6.24,6.23,6.23,0,0,1,6.24,6.24A6.24,6.24,0,0,1-340.46,218.56Z" transform="translate(349.36 457.41)"/><path class="h" d="M-32.16,298.5a6.24,6.24,0,0,1-6.24-6.24A6.24,6.24,0,0,1-32.16,286a6.23,6.23,0,0,1,6.24,6.24A6.24,6.24,0,0,1-32.16,298.5Z" transform="translate(349.36 457.41)"/><path class="h" d="M-76.29,351a6.24,6.24,0,0,1-6.24-6.24,6.23,6.23,0,0,1,6.24-6.23A6.21,6.21,0,0,1-70,344.78,6.24,6.24,0,0,1-76.29,351Z" transform="translate(349.36 457.41)"/><path class="h" d="M-161.65,374.61a6.24,6.24,0,0,1-6.24-6.24,6.24,6.24,0,0,1,6.24-6.24,6.23,6.23,0,0,1,6.24,6.24A6.23,6.23,0,0,1-161.65,374.61Z" transform="translate(349.36 457.41)"/><path class="h" d="M-242.72,353.42a6.24,6.24,0,0,1-6.25-6.24,6.24,6.24,0,0,1,6.25-6.24,6.21,6.21,0,0,1,6.23,6.24A6.23,6.23,0,0,1-242.72,353.42Z" transform="translate(349.36 457.41)"/><path class="h" d="M-304.77,299.93a6.24,6.24,0,0,1-6.25-6.24,6.24,6.24,0,0,1,6.24-6.24,6.21,6.21,0,0,1,6.24,6.24A6.23,6.23,0,0,1-304.77,299.93Z" transform="translate(349.36 457.41)"/><path class="h" d="M-20.79,218.57A6.24,6.24,0,0,1-27,212.33a6.24,6.24,0,0,1,6.24-6.24,6.22,6.22,0,0,1,6.24,6.24A6.23,6.23,0,0,1-20.79,218.57Z" transform="translate(349.36 457.41)"/><path class="h" d="M-233.43-246a6.24,6.24,0,0,1,6.24,6.24,6.24,6.24,0,0,1-6.24,6.24,6.23,6.23,0,0,1-6.24-6.24A6.24,6.24,0,0,1-233.43-246Z" transform="translate(349.36 457.41)"/><path class="h" d="M86.23-246a6.24,6.24,0,0,1,6.25,6.24,6.26,6.26,0,0,1-6.25,6.24A6.23,6.23,0,0,1,80-239.79,6.24,6.24,0,0,1,86.23-246Z" transform="translate(349.36 457.41)"/><path class="h" d="M-222.07-326a6.22,6.22,0,0,1,6.24,6.24,6.23,6.23,0,0,1-6.24,6.23,6.21,6.21,0,0,1-6.24-6.23A6.24,6.24,0,0,1-222.07-326Z" transform="translate(349.36 457.41)"/><path class="h" d="M-177.94-378.5a6.24,6.24,0,0,1,6.25,6.24,6.24,6.24,0,0,1-6.25,6.24,6.21,6.21,0,0,1-6.23-6.24A6.23,6.23,0,0,1-177.94-378.5Z" transform="translate(349.36 457.41)"/><path class="h" d="M-92.58-402.09a6.24,6.24,0,0,1,6.25,6.24,6.24,6.24,0,0,1-6.25,6.24,6.22,6.22,0,0,1-6.24-6.24A6.23,6.23,0,0,1-92.58-402.09Z" transform="translate(349.36 457.41)"/><path class="h" d="M-11.51-380.89a6.24,6.24,0,0,1,6.25,6.24,6.24,6.24,0,0,1-6.24,6.24,6.22,6.22,0,0,1-6.24-6.24A6.23,6.23,0,0,1-11.51-380.89Z" transform="translate(349.36 457.41)"/><path class="h" d="M50.55-327.4a6.24,6.24,0,0,1,6.24,6.24,6.24,6.24,0,0,1-6.24,6.24,6.22,6.22,0,0,1-6.24-6.24A6.24,6.24,0,0,1,50.55-327.4Z" transform="translate(349.36 457.41)"/></g></g></g></svg>