<svg xmlns="http://www.w3.org/2000/svg" viewBox="0 0 68 68"><defs><style>.a{fill:#0c1626;stroke:#e51e26;stroke-width:3px;}.b{fill:#feffff;}</style></defs><title>restauranticon</title><path class="a" d="M333.89-268.1a32.51,32.51,0,0,0-32.49,32.52,32.5,32.5,0,0,0,32.51,32.48,32.49,32.49,0,0,0,32.49-32.51,32.51,32.51,0,0,0-32.51-32.49Z" transform="translate(-299.9 269.6)"/><path class="b" d="M330.8-255.72v9.27a.6.6,0,0,1-.6.6.6.6,0,0,1-.6-.6v-9.37a.69.69,0,0,0-.67-.72.7.7,0,0,0-.73.67h0v9.42a.6.6,0,0,1-.6.6.6.6,0,0,1-.6-.6v-9.42a.76.76,0,0,0-.92-.58.77.77,0,0,0-.56.52v9.49a.59.59,0,0,1-.6.59.59.59,0,0,1-.6-.59v-9.44a.79.79,0,0,0-.94-.6.79.79,0,0,0-.62.81v12.55c0,1.8,1,3,2.55,3V-217a2.2,2.2,0,0,0,2,2.39,2.2,2.2,0,0,0,2.39-2,2.67,2.67,0,0,0,0-.4v-23.08a2.74,2.74,0,0,0,2.63-2.8v-12.73a.75.75,0,0,0-.68-.83.76.76,0,0,0-.84.68v.09" transform="translate(-299.9 269.6)"/><path class="b" d="M338.3-252.76v20.9c0,.4.18.47.54.47H340c.36,0,.6.17.6.53v13.8a2.2,2.2,0,0,0,2.08,2.32,2.2,2.2,0,0,0,2.32-2.08v-35.93c0-5-6.73-5-6.73,0" transform="translate(-299.9 269.6)"/></svg>