<svg xmlns="http://www.w3.org/2000/svg" viewBox="0 0 24 24"><defs><style>.a{fill:#fdfefe;}</style></defs><title>share</title><path class="a" d="M383.13,180a5.59,5.59,0,0,0-.59-.11,5,5,0,0,1-3.84-4.05,4.36,4.36,0,0,1,0-1.35.12.12,0,0,0-.08-.13l-3.31-1.76-1.94-1a.15.15,0,0,0-.21,0h0a4.91,4.91,0,0,1-3,1.39,5,5,0,0,1-1.41-9.89h0a4.9,4.9,0,0,1,4.15,1.14.1.1,0,0,0,.16,0h0l5.54-3.4a.15.15,0,0,0,.08-.18,4,4,0,0,1,7.88-1.38.2.2,0,0,1,0,.07,4,4,0,0,1-6.32,3.88.14.14,0,0,0-.18,0l-5.52,3.4a.15.15,0,0,0-.08.18h0a4.79,4.79,0,0,1,.06,2.13.13.13,0,0,0,.09.16q2,1,3.93,2.1l1.12.6c.08,0,.1,0,.16,0a4.9,4.9,0,0,1,3.52-1.73,5,5,0,0,1,5.2,4.15,2.41,2.41,0,0,0,.07.37v1a1.59,1.59,0,0,0-.07.38,5,5,0,0,1-3.83,4c-.22.05-.44.08-.66.12Z" transform="translate(-364.63 -155.97)"/></svg>