<svg xmlns="http://www.w3.org/2000/svg" viewBox="0 0 148.67 38.8"><defs><style>.a{fill:#001025;}.b{fill:#fff;}</style></defs><title>tab</title><path class="a" d="M495.28-98.13a19.46,19.46,0,0,1-15.55-7.5l-9.84-13.09a13.56,13.56,0,0,0-10.82-5.21H382.83A13.53,13.53,0,0,0,372-118.72l-9.85,13.09a19.46,19.46,0,0,1-15.55,7.5v13H495.28Z" transform="translate(-346.61 123.93)"/><path class="b" d="M392.94-115.56h56a1,1,0,0,1,1,1h0a1,1,0,0,1-1,1h-56a1,1,0,0,1-1-1h0A1,1,0,0,1,392.94-115.56Z" transform="translate(-346.61 123.93)"/><path class="b" d="M392.94-107.56h56a1,1,0,0,1,1,1h0a1,1,0,0,1-1,1h-56a1,1,0,0,1-1-1h0A1,1,0,0,1,392.94-107.56Z" transform="translate(-346.61 123.93)"/></svg>