<svg xmlns="http://www.w3.org/2000/svg" viewBox="0 0 55.33211 69.93149"><defs><style>.a{fill:#0a1525;}</style></defs><title>usericon</title><path class="a" d="M294.685,386.051a27.75388,27.75388,0,0,0-22.714,37.772,72.14119,72.14119,0,0,0,3.928,7.924,78.089,78.089,0,0,0,12.826,16.183c4.046,4.046,8.78,8.159,9.149,7.957a110,110,0,0,0,8.814-7.957,78.23255,78.23255,0,0,0,12.608-15.8,72.15039,72.15039,0,0,0,4.146-8.31,27.72968,27.72968,0,0,0-21.119-37.537A39.26921,39.26921,0,0,0,294.685,386.051Zm7.3,7.4a21.113,21.113,0,0,1,13.967,10.392,21.361,21.361,0,0,1,2.418,11.835,20.124,20.124,0,0,1-6.043,12.691,19.84741,19.84741,0,0,1-6.3,4.4,20.82007,20.82007,0,0,1-19.659-1.629,24.74285,24.74285,0,0,1-6.06-6.06,20.715,20.715,0,0,1,.084-22.8,25.939,25.939,0,0,1,4.784-5.087,20.781,20.781,0,0,1,16.811-3.737Z" transform="translate(-270.03855 -385.9627)"/><path class="a" d="M297.102,397.97a8.842,8.842,0,0,0-6.48,5.574,8.625,8.625,0,0,0-.151,3.794c.134.42.118.537-.067.537-.47,0-.806.789-.688,1.645a8.21492,8.21492,0,0,0,1.175,3.307,4.30012,4.30012,0,0,1,.672,1.444,12.55506,12.55506,0,0,0,.856,2.132l.587,1.041-.3.856-.285.873-1.511.621c-1.528.621-3.878,1.427-5.657,1.93-.537.134-.973.353-.973.47a13.87773,13.87773,0,0,0,2.5,2.888,16.28181,16.28181,0,0,0,22.537-.67093c1.007-1.024,1.913-2.216,1.779-2.35-.034-.05-1.108-.386-2.367-.755a35.68441,35.68441,0,0,1-5.612-2.061,3.01254,3.01254,0,0,1-.47-1.058c-.252-.873-.252-.89.168-1.561a10.39149,10.39149,0,0,0,1.108-2.938c0-.134.168-.268.386-.3.5-.067,1.259-1.6,1.511-3.055.168-.973.151-1.192-.1-1.662a2.01993,2.01993,0,0,1-.118-1.544,11.373,11.373,0,0,0-.084-4.247,3.53093,3.53093,0,0,0-1.645-2.149,3.39186,3.39186,0,0,1-.991-.823,6.79987,6.79987,0,0,0-3.24-1.847A6.58,6.58,0,0,0,297.102,397.97Z" transform="translate(-270.03855 -385.9627)"/></svg>