<svg height="511pt" viewBox="-63 0 511 511.61307" width="511pt" xmlns="http://www.w3.org/2000/svg"><path d="m128.371094 237.75c5.046875-.007812 9.136718-4.097656 9.140625-9.144531-.019531-1.25-.3125-2.480469-.855469-3.605469-4.269531-1.21875-8.476562-2.660156-12.59375-4.320312-2.949219 1.550781-4.808594 4.597656-4.835938 7.925781.007813 5.046875 4.097657 9.136719 9.144532 9.144531zm0 0"/><path d="m256.296875 237.75c5.046875-.007812 9.136719-4.097656 9.144531-9.144531-.03125-3.328125-1.886718-6.375-4.835937-7.925781-4.121094 1.660156-8.324219 3.101562-12.597657 4.320312-.539062 1.125-.832031 2.355469-.851562 3.605469.003906 5.046875 4.09375 9.136719 9.140625 9.144531zm0 0"/><path d="m237.121094 471.375c3.007812 6.015625 15.660156 9.898438 28.546875 11.8125-3.257813-15.191406-3.25-30.902344.023437-46.089844.660156-3.304687 3.089844-5.976562 6.316406-6.953125 3.226563-.976562 6.726563-.097656 9.113282 2.285157 7.960937 7.957031 24.980468 9.226562 38.726562 8.578124-5.664062-12.109374-8.605468-25.316406-8.621094-38.6875 0-3.371093 1.855469-6.46875 4.828126-8.058593 2.972656-1.59375 6.582031-1.417969 9.386718.453125 8.511719 5.75 18.964844 7.867187 29.042969 5.882812-11.867187-11.429687-20.402344-25.867187-24.699219-41.773437-.832031-3.332031.269532-6.847657 2.855469-9.109375 2.589844-2.257813 6.226563-2.875 9.414063-1.597656 12.722656 6.449218 27.835937 6.078124 40.230468-.992188-20.660156-6.9375-32.851562-30.804688-33.519531-32.144531-1.273437-2.546875-1.289063-5.542969-.035156-8.105469 1.25-2.558594 3.625-4.386719 6.417969-4.945312 10.34375-1.167969 19.75-6.535157 26.015624-14.851563 1.554688-2.484375 2.671876-5.21875 3.289063-8.085937-11.519531 4.632812-23.839844 6.945312-36.257813 6.808593-.070312 0-.132812.039063-.207031.039063-.308593 0-.613281-.015625-.929687-.046875l-.101563-.03125c-4.300781-.300781-8.503906-1.40625-12.390625-3.261719-2.171875-1.085938-3.820312-2.988281-4.585937-5.289062-.769531-2.300782-.589844-4.808594.496093-6.980469 1.820313-3.582031 5.789063-5.53125 9.738282-4.773438.476562-3.125.988281-6.167969 1.503906-9.085937 1.015625-5.253906 1.90625-10.449219 2.710938-15.636719 1.140624-6.625 2.003906-12.917969 2.589843-18.878906.761719-6.972657 1.226563-13.898438 1.601563-20.753907-.578125-.027343-1.15625-.027343-1.730469-.078124-9.539063-.789063-18.351563-5.421876-24.410156-12.835938-2.089844-2.511719-2.679688-5.949219-1.546875-9.011719 1.128906-3.066406 3.808594-5.296875 7.03125-5.847656 3.21875-.554687 6.488281.652344 8.578125 3.164063 2.964843 3.667968 7.3125 5.949218 12.015625 6.308593 7.027344.398438 13.933594-1.957031 19.25-6.570312 7.171875-5.671875 11.851562-13.917969 13.042968-22.988281.117188-9.152344-4.679687-17.664063-12.570312-22.300782-8.433594-5.382812-18.765625-6.902344-28.390625-4.175781-3.105469 1.121094-6.578125.480469-9.082031-1.679687-2.5-2.160157-3.640625-5.503907-2.980469-8.742188s3.015625-5.871094 6.160156-6.882812c9.777344-3.054688 20.246094-3.101563 30.050781-.136719 4.257813-4.886719 6.925782-10.957031 7.648438-17.398438.132812-9.132812-4.644531-17.636719-12.511719-22.277343-5.394531-3.359376-11.566406-5.265626-17.917969-5.527344-1.511718 2.527344-3.292968 4.886718-5.316406 7.027344-6.542968 6.992187-15.648437 11.023437-25.222656 11.171874h-.222656c-4.980469-.039062-9.015625-4.054687-9.070313-9.035156-.058593-4.984375 3.882813-9.09375 8.859375-9.246094 4.71875-.046874 9.207032-2.035156 12.410156-5.5 4.660157-5.265624 7.101563-12.132812 6.804688-19.160156.015625-9.144531-3.539062-17.9375-9.90625-24.503906-7.097656-5.777344-16.75-7.304688-25.285156-4.003906-9.457032 3.261718-17.066406 10.417968-20.902344 19.65625-1.691406 4.757812-6.921875 7.246094-11.679688 5.554687-4.757812-1.691406-7.246093-6.921875-5.554687-11.679687.050781-.140625.128906-.277344.183594-.417969-1.109375-6.90625-4.324219-13.304687-9.199219-18.320313-7.105469-5.7343745-16.734375-7.238281-25.253906-3.945312-9.460938 3.261719-17.074219 10.417969-20.917969 19.65625-.050781.15625-.179687.253906-.238281.402344-.265625.570312-.585938 1.113281-.964844 1.613281-.292969.484375-.628906.941406-1.003906 1.363281-.386719.339844-.800782.648438-1.238282.914063-.539062.414062-1.125.765625-1.746093 1.046875-.136719.054687-.226563.171875-.367188.21875-1.035156.148437-2.070312.292968-3.105469.4375-.597656-.023438-1.183593-.109375-1.761718-.253906-.417969-.03125-.835938-.09375-1.242188-.183594-.15625-.054688-.257812-.183594-.410156-.246094-.578125-.265625-1.121094-.59375-1.628906-.976562-.46875-.285157-.914063-.613282-1.324219-.980469-.371094-.410157-.699219-.859375-.988281-1.332031-.378906-.507813-.707032-1.050782-.972656-1.625-.058594-.152344-.183594-.25-.238282-.402344-3.84375-9.238282-11.453125-16.394532-20.910156-19.65625-8.550781-3.292969-18.207031-1.7656252-25.324219 4.007812-4.84375 5.003906-8.03125 11.378906-9.132812 18.253906.050781.144532.128906.277344.179687.417969 1.097656 3.078125.464844 6.507813-1.652344 8.996094-2.121093 2.484375-5.40625 3.652344-8.617187 3.0625-3.214844-.59375-5.867187-2.851563-6.960937-5.933594-3.835938-9.234375-11.445313-16.390625-20.902344-19.652343-8.535156-3.304688-18.191406-1.777344-25.289063 4.007812-6.367187 6.5625-9.921875 15.355469-9.910156 24.5-.292969 7.027344 2.144531 13.898438 6.804687 19.164062 3.203126 3.464844 7.691407 5.453126 12.410157 5.5 4.980469.152344 8.917969 4.261719 8.863281 9.242188s-4.089844 9-9.070312 9.039062h-.21875c-9.574219-.144531-18.679688-4.171874-25.226563-11.160156-2.019531-2.144531-3.804687-4.5-5.3125-7.03125-6.335937.261719-12.5 2.15625-17.882813 5.507813-7.878906 4.632812-12.671874 13.136719-12.554687 22.277343.722656 6.449219 3.390625 12.527344 7.652344 17.421876 9.804687-2.96875 20.273437-2.921876 30.050781.136718 4.6875 1.695313 7.15625 6.832032 5.546875 11.550782s-6.703125 7.277343-11.449219 5.753906c-9.625-2.726563-19.957031-1.207032-28.386718 4.171875-7.894532 4.640625-12.691407 13.152343-12.574219 22.304687 1.191406 9.070313 5.871093 17.316406 13.046875 22.988282 5.320312 4.601562 12.222656 6.957031 19.25 6.570312 4.699218-.359375 9.046875-2.640625 12.011718-6.308594 2.074219-2.554687 5.363282-3.796875 8.609376-3.253906 3.246093.546875 5.949218 2.792969 7.078124 5.882812 1.125 3.089844.507813 6.550782-1.625 9.058594-6.058593 7.414063-14.871093 12.046875-24.410156 12.835938-.574218.050781-1.15625.050781-1.730468.078125.363281 6.839843.835937 13.757812 1.589843 20.664062.710938 6.285157 1.503907 12.601563 2.578125 18.832031.828125 5.332032 1.71875 10.523438 2.707032 15.625.527343 3 1.050781 6.085938 1.53125 9.234376 3.945312-.753907 7.917968 1.195312 9.738281 4.777343 1.085937 2.167969 1.261719 4.679688.496093 6.980469-.765624 2.300781-2.417968 4.203125-4.585937 5.289062-3.886719 1.855469-8.089844 2.960938-12.390625 3.261719l-.105469.03125c-.3125.03125-.625.046875-.925781.046875-.074219 0-.136719-.039062-.210938-.042968-12.40625.144531-24.722656-2.167969-36.234374-6.804688.625 2.9375 1.769531 5.734375 3.382812 8.261719 6.285156 8.207031 15.636719 13.503906 25.902344 14.671875 2.796875.558594 5.167968 2.390625 6.421875 4.949218 1.25 2.558594 1.238281 5.558594-.035157 8.105469-.671874 1.339844-12.875 25.226563-33.554687 32.152344 12.398437 7.085937 27.53125 7.453125 40.261719.980469 3.1875-1.273438 6.820312-.65625 9.410156 1.597656 2.585938 2.257812 3.691406 5.777344 2.859375 9.105469-4.296875 15.917969-12.84375 30.363281-24.722656 41.792969 10.085937 1.992187 20.554687-.132813 29.066406-5.902344 2.804687-1.871094 6.414063-2.046875 9.386719-.457032 2.972656 1.59375 4.828125 4.691407 4.828125 8.0625-.015625 13.363282-2.953125 26.558594-8.609375 38.664063 13.785156.675781 30.789062-.625 38.71875-8.554687 2.382812-2.382813 5.882812-3.261719 9.109375-2.285157 3.226562.976563 5.65625 3.648438 6.316406 6.953125 3.273437 15.1875 3.28125 30.898438.023437 46.089844 12.890626-1.914062 25.539063-5.796875 28.550782-11.8125 1.894531-3.792969 6.152344-5.785156 10.277344-4.8125 4.128906.976562 7.042968 4.660156 7.042968 8.902344.507813 16.660156 11.519532 31.171875 27.429688 36.148437 16.003906-4.839843 27.078125-19.429687 27.425781-36.148437 0-4.242188 2.914063-7.925782 7.042969-8.902344 4.128906-.972656 8.382812 1.019531 10.28125 4.8125zm47.957031-284.917969c4.042969-2.910156 9.671875-2.050781 12.660156 1.9375 2.988281 3.984375 2.234375 9.628907-1.695312 12.691407-5.691407 4.121093-11.644531 7.867187-17.820313 11.222656 7.105469 9.550781 7.226563 22.601562.296875 32.285156-6.933593 9.683594-19.324219 13.773438-30.660156 10.125-11.332031-3.648438-19.011719-14.203125-18.988281-26.113281l.015625-.203125c-1.484375.09375-2.96875.203125-4.449219.203125-1.160156 0-2.324219-.03125-3.476562-.089844-3.289063-.132813-6.257813-2.027344-7.761719-4.957031-1.507813-2.929688-1.320313-6.445313.488281-9.199219s4.960938-4.320313 8.246094-4.101563c29.128906 1.546876 62.804687-23.546874 63.144531-23.800781zm-74.421875-12.707031h-36.574219c-5.046875 0-9.140625-4.09375-9.140625-9.144531 0-5.046875 4.09375-9.140625 9.140625-9.140625h36.574219c5.046875 0 9.140625 4.09375 9.140625 9.140625 0 5.050781-4.09375 9.144531-9.140625 9.144531zm-86.375-90.464844c4.476562-2.238281 9.917969-.460937 12.214844 3.988282 6.371094 9.257812 17.242187 14.355468 28.4375 13.332031h.007812c18.074219-.003907 18.285156-9.050781 18.285156-9.140625 0-5.050782 4.09375-9.144532 9.144532-9.144532 5.046875 0 9.140625 4.09375 9.140625 9.144532.097656 1.308594 1.464843 9.136718 18.285156 9.140625h.011719c11.199218 1.039062 22.082031-4.070313 28.445312-13.347657 2.367188-4.414062 7.832032-6.121093 12.292969-3.839843 4.4375 2.265625 6.222656 7.679687 4 12.140625-9.390625 15.515625-26.640625 24.511718-44.738281 23.335937h-.011719c-9.914063.597657-19.695313-2.527343-27.425781-8.761719-7.734375 6.234376-17.515625 9.359376-27.429688 8.761719h-.007812c-18.101563 1.179688-35.355469-7.820312-44.742188-23.339843-1.085937-2.171876-1.261718-4.679688-.496094-6.980469.765626-2.300781 2.414063-4.203125 4.585938-5.289063zm-37.496094 105.011719c3.023438-4.035156 8.746094-4.859375 12.789063-1.847656.339843.25 34.261719 25.261719 63.160156 23.804687 5-.199218 9.234375 3.652344 9.5 8.648438s-3.535156 9.28125-8.527344 9.609375c-1.152343.0625-2.316406.09375-3.472656.09375-1.484375 0-2.96875-.113281-4.453125-.207031l.015625.207031c.082031 11.960937-7.597656 22.59375-18.976563 26.277343-11.378906 3.6875-23.832031-.425781-30.777343-10.160156-6.949219-9.738281-6.785157-22.851562.402343-32.414062-6.175781-3.351563-12.132812-7.101563-17.828124-11.21875-4.039063-3.027344-4.859376-8.753906-1.832032-12.792969zm87.296875 214.023437c-.015625 15.140626-12.285156 27.414063-27.425781 27.429688-5.050781 0-9.144531-4.09375-9.144531-9.144531 0-5.046875 4.09375-9.140625 9.144531-9.140625 5.046875-.007813 9.136719-4.097656 9.140625-9.144532v-9.140624c0-5.050782 4.09375-9.144532 9.144531-9.144532 5.050782 0 9.140625 4.09375 9.140625 9.144532zm27.429688 54.859376c0 5.046874-4.09375 9.140624-9.140625 9.140624-5.050782 0-9.144532-4.09375-9.144532-9.140624v-18.285157c0-5.050781 4.09375-9.144531 9.144532-9.144531 5.046875 0 9.140625 4.09375 9.140625 9.144531zm-9.140625-108.238282c-19.628906 10.773438-41.609375 16.546875-64 16.808594-19.59375.078125-38.429688-7.550781-52.441406-21.238281-1.695313-1.839844-2.5625-4.292969-2.398438-6.789063s1.34375-4.816406 3.261719-6.417968c.207031-.195313.410156-.382813.625-.558594 22.113281-20.957032 49.335937-35.75 78.953125-42.898438-.339844-1.4375-.535156-2.90625-.574219-4.382812 0-5.050782 4.09375-9.144532 9.144531-9.144532 5.050782 0 9.140625 4.09375 9.140625 9.144532 0 3.726562 7.125 9.140625 18.289063 9.140625 11.160156 0 18.285156-5.414063 18.285156-9.140625 0-5.050782 4.09375-9.144532 9.140625-9.144532 5.050781 0 9.144531 4.09375 9.144531 9.144532-.039062 1.476562-.230468 2.945312-.574218 4.382812 29.695312 7.171875 56.980468 22.019532 79.128906 43.0625.140625.121094.28125.242188.40625.355469 1.9375 1.597656 3.132812 3.921875 3.304687 6.425781.171875 2.507813-.691406 4.972656-2.390625 6.820313-14.015625 13.691406-32.855468 21.316406-52.445312 21.238281-22.390625-.261719-44.375-6.035156-64-16.808594zm18.285156 53.378906v-9.140624c0-5.050782 4.09375-9.144532 9.140625-9.144532 5.050781 0 9.144531 4.09375 9.144531 9.144532v9.140624c.007813 5.046876 4.097656 9.136719 9.140625 9.144532 5.050781 0 9.144531 4.09375 9.144531 9.140625 0 5.050781-4.09375 9.144531-9.144531 9.144531-15.140625-.015625-27.410156-12.289062-27.425781-27.429688zm0 0"/><path d="m287.976562 338.046875c-20.460937-17.390625-45.140624-29.085937-71.554687-33.910156-14.769531 9.011719-33.335937 9.011719-48.105469 0-26.414062 4.828125-51.097656 16.527343-71.558594 33.917969 9.390626 6.164062 20.382813 9.433593 31.613282 9.410156 20.777344-.265625 41.113281-6.046875 58.925781-16.75l.015625-.007813c1-.664062 2.121094-1.125 3.300781-1.355469 1.171875-.011718 2.339844-.011718 3.511719 0 1.175781.230469 2.300781.691407 3.300781 1.355469l.015625.007813c17.835938 10.652344 38.15625 16.429687 58.929688 16.75 11.230468.023437 22.21875-3.25 31.605468-9.417969zm0 0"/></svg>